<mxfile host="app.diagrams.net" modified="2022-02-14T11:07:35.620Z" agent="5.0 (Windows NT 10.0; Win64; x64) AppleWebKit/537.36 (KHTML, like Gecko) Chrome/97.0.4692.99 Safari/537.36" etag="bWQS3-UWwrA-akaYKou7" version="16.5.6" type="github" pages="2">
  <diagram id="xgklTtfRZ73jh45M1yFe" name="Page-1">
    <mxGraphModel dx="1038" dy="567" grid="1" gridSize="10" guides="1" tooltips="1" connect="1" arrows="1" fold="1" page="1" pageScale="1" pageWidth="850" pageHeight="1100" math="0" shadow="0">
      <root>
        <mxCell id="0" />
        <mxCell id="1" parent="0" />
        <mxCell id="a3G3dCAkB63PJOUpqbME-14" value="" style="whiteSpace=wrap;html=1;aspect=fixed;" vertex="1" parent="1">
          <mxGeometry x="40" y="40" width="710" height="710" as="geometry" />
        </mxCell>
        <mxCell id="a3G3dCAkB63PJOUpqbME-15" value="" style="rounded=0;whiteSpace=wrap;html=1;fillColor=#0050ef;strokeColor=#001DBC;fontColor=#ffffff;" vertex="1" parent="1">
          <mxGeometry x="40" y="40" width="710" height="70" as="geometry" />
        </mxCell>
        <mxCell id="a3G3dCAkB63PJOUpqbME-16" value="&lt;b&gt;&lt;font style=&quot;font-size: 22px&quot; color=&quot;#ffffff&quot;&gt;COMPANY MANAGEMENT SYSTEM&lt;/font&gt;&lt;/b&gt;" style="text;html=1;align=center;verticalAlign=middle;whiteSpace=wrap;rounded=0;" vertex="1" parent="1">
          <mxGeometry x="40" y="70" width="380" height="40" as="geometry" />
        </mxCell>
        <mxCell id="a3G3dCAkB63PJOUpqbME-19" value="" style="rounded=0;whiteSpace=wrap;html=1;fontSize=22;fontColor=#FFFFFF;fillColor=#D4E1F5;" vertex="1" parent="1">
          <mxGeometry x="80" y="128" width="640" height="430" as="geometry" />
        </mxCell>
        <mxCell id="a3G3dCAkB63PJOUpqbME-20" value="&lt;font color=&quot;#000000&quot; style=&quot;font-size: 15px&quot;&gt;Company Name&lt;/font&gt;" style="text;html=1;strokeColor=none;fillColor=none;align=center;verticalAlign=middle;whiteSpace=wrap;rounded=0;fontSize=22;fontColor=#FFFFFF;" vertex="1" parent="1">
          <mxGeometry x="110" y="202" width="140" height="20" as="geometry" />
        </mxCell>
        <mxCell id="a3G3dCAkB63PJOUpqbME-21" value="Input text" style="text;fontSize=16;verticalAlign=middle;strokeColor=none;fillColor=none;fontColor=#A8A8A8;" vertex="1" parent="1">
          <mxGeometry x="300" y="192" width="346" height="30" as="geometry" />
        </mxCell>
        <mxCell id="a3G3dCAkB63PJOUpqbME-22" value="" style="dashed=0;shape=line;strokeWidth=2;noLabel=1;strokeColor=#0C8CF2;opacity=50;fontSize=15;fontColor=#000000;fillColor=#D4E1F5;" vertex="1" parent="1">
          <mxGeometry x="300" y="217" width="346" height="10" as="geometry" />
        </mxCell>
        <mxCell id="a3G3dCAkB63PJOUpqbME-23" value="&lt;font color=&quot;#000000&quot; style=&quot;font-size: 15px&quot;&gt;CEO&lt;/font&gt;" style="text;html=1;strokeColor=none;fillColor=none;align=center;verticalAlign=middle;whiteSpace=wrap;rounded=0;fontSize=22;fontColor=#FFFFFF;" vertex="1" parent="1">
          <mxGeometry x="120" y="260" width="50" height="20" as="geometry" />
        </mxCell>
        <mxCell id="a3G3dCAkB63PJOUpqbME-24" value="Input text" style="text;fontSize=16;verticalAlign=middle;strokeColor=none;fillColor=none;fontColor=#B0B0B0;" vertex="1" parent="1">
          <mxGeometry x="300" y="250" width="346" height="30" as="geometry" />
        </mxCell>
        <mxCell id="a3G3dCAkB63PJOUpqbME-25" value="&lt;font color=&quot;#000000&quot; style=&quot;font-size: 15px&quot;&gt;Founded&lt;/font&gt;" style="text;html=1;strokeColor=none;fillColor=none;align=center;verticalAlign=middle;whiteSpace=wrap;rounded=0;fontSize=22;fontColor=#FFFFFF;" vertex="1" parent="1">
          <mxGeometry x="110" y="320" width="90" height="20" as="geometry" />
        </mxCell>
        <mxCell id="a3G3dCAkB63PJOUpqbME-26" value="Input text" style="text;fontSize=16;verticalAlign=middle;strokeColor=none;fillColor=none;fontColor=#B0B0B0;" vertex="1" parent="1">
          <mxGeometry x="300" y="310" width="346" height="30" as="geometry" />
        </mxCell>
        <mxCell id="a3G3dCAkB63PJOUpqbME-27" value="&lt;font color=&quot;#000000&quot; style=&quot;font-size: 15px&quot;&gt;Head Quaters&lt;/font&gt;" style="text;html=1;strokeColor=none;fillColor=none;align=center;verticalAlign=middle;whiteSpace=wrap;rounded=0;fontSize=22;fontColor=#FFFFFF;" vertex="1" parent="1">
          <mxGeometry x="120" y="380" width="110" height="20" as="geometry" />
        </mxCell>
        <mxCell id="a3G3dCAkB63PJOUpqbME-28" value="Input text" style="text;fontSize=16;verticalAlign=middle;strokeColor=none;fillColor=none;fontColor=#B0B0B0;" vertex="1" parent="1">
          <mxGeometry x="300" y="370" width="346" height="30" as="geometry" />
        </mxCell>
        <mxCell id="a3G3dCAkB63PJOUpqbME-29" value="&lt;font color=&quot;#000000&quot; style=&quot;font-size: 15px&quot;&gt;Number of Employees&lt;/font&gt;" style="text;html=1;strokeColor=none;fillColor=none;align=center;verticalAlign=middle;whiteSpace=wrap;rounded=0;fontSize=22;fontColor=#FFFFFF;" vertex="1" parent="1">
          <mxGeometry x="120" y="425" width="160" height="20" as="geometry" />
        </mxCell>
        <mxCell id="a3G3dCAkB63PJOUpqbME-30" value="Input text" style="text;fontSize=16;verticalAlign=middle;strokeColor=none;fillColor=none;fontColor=#B0B0B0;" vertex="1" parent="1">
          <mxGeometry x="300" y="420" width="346" height="30" as="geometry" />
        </mxCell>
        <mxCell id="a3G3dCAkB63PJOUpqbME-35" value="" style="dashed=0;shape=line;strokeWidth=2;noLabel=1;strokeColor=#0C8CF2;opacity=50;fontSize=15;fontColor=#000000;fillColor=#D4E1F5;" vertex="1" parent="1">
          <mxGeometry x="300" y="278" width="346" height="10" as="geometry" />
        </mxCell>
        <mxCell id="a3G3dCAkB63PJOUpqbME-36" value="" style="dashed=0;shape=line;strokeWidth=2;noLabel=1;strokeColor=#0C8CF2;opacity=50;fontSize=15;fontColor=#000000;fillColor=#D4E1F5;" vertex="1" parent="1">
          <mxGeometry x="300" y="338" width="346" height="10" as="geometry" />
        </mxCell>
        <mxCell id="a3G3dCAkB63PJOUpqbME-37" value="" style="dashed=0;shape=line;strokeWidth=2;noLabel=1;strokeColor=#0C8CF2;opacity=50;fontSize=15;fontColor=#000000;fillColor=#D4E1F5;" vertex="1" parent="1">
          <mxGeometry x="300" y="390" width="346" height="10" as="geometry" />
        </mxCell>
        <mxCell id="a3G3dCAkB63PJOUpqbME-38" value="" style="dashed=0;shape=line;strokeWidth=2;noLabel=1;strokeColor=#0C8CF2;opacity=50;fontSize=15;fontColor=#000000;fillColor=#D4E1F5;" vertex="1" parent="1">
          <mxGeometry x="300" y="440" width="346" height="10" as="geometry" />
        </mxCell>
        <mxCell id="a3G3dCAkB63PJOUpqbME-43" value="RESET" style="html=1;shadow=0;dashed=0;shape=mxgraph.bootstrap.rrect;rSize=5;strokeColor=none;strokeWidth=1;fillColor=#1CA5B8;fontColor=#FFFFFF;whiteSpace=wrap;align=left;verticalAlign=middle;spacingLeft=0;fontStyle=1;fontSize=14;spacing=5;" vertex="1" parent="1">
          <mxGeometry x="400" y="500" width="70" height="30" as="geometry" />
        </mxCell>
        <mxCell id="a3G3dCAkB63PJOUpqbME-44" value="SUBMIT" style="html=1;shadow=0;dashed=0;shape=mxgraph.bootstrap.rrect;rSize=5;strokeColor=none;strokeWidth=1;fillColor=#1CA5B8;fontColor=#FFFFFF;whiteSpace=wrap;align=left;verticalAlign=middle;spacingLeft=0;fontStyle=1;fontSize=14;spacing=5;" vertex="1" parent="1">
          <mxGeometry x="220" y="500" width="70" height="30" as="geometry" />
        </mxCell>
      </root>
    </mxGraphModel>
  </diagram>
  <diagram id="uuILfeCzctots4AE0UAK" name="Page-2">
    <mxGraphModel dx="1357" dy="742" grid="1" gridSize="10" guides="1" tooltips="1" connect="1" arrows="1" fold="1" page="1" pageScale="1" pageWidth="1100" pageHeight="850" math="0" shadow="0">
      <root>
        <mxCell id="LgVzaCfuc4gzp10Vu214-0" />
        <mxCell id="LgVzaCfuc4gzp10Vu214-1" parent="LgVzaCfuc4gzp10Vu214-0" />
        <mxCell id="LgVzaCfuc4gzp10Vu214-2" value="" style="rounded=0;whiteSpace=wrap;html=1;fontSize=15;fillColor=#eeeeee;strokeColor=#36393d;" vertex="1" parent="LgVzaCfuc4gzp10Vu214-1">
          <mxGeometry x="10" y="10" width="1080" height="820" as="geometry" />
        </mxCell>
        <mxCell id="LgVzaCfuc4gzp10Vu214-3" value="" style="rounded=0;whiteSpace=wrap;html=1;fontSize=15;fontColor=#ffffff;fillColor=#5C005C;strokeColor=#432D57;" vertex="1" parent="LgVzaCfuc4gzp10Vu214-1">
          <mxGeometry x="10" y="10" width="270" height="820" as="geometry" />
        </mxCell>
        <mxCell id="LgVzaCfuc4gzp10Vu214-4" value="" style="rounded=0;whiteSpace=wrap;html=1;fontSize=15;fillColor=#FCDEF8;" vertex="1" parent="LgVzaCfuc4gzp10Vu214-1">
          <mxGeometry x="280" y="10" width="810" height="60" as="geometry" />
        </mxCell>
        <mxCell id="LgVzaCfuc4gzp10Vu214-5" value="" style="shape=rect;fillColor=#F6F6F6;strokeColor=none;fontSize=15;fontColor=#B0B0B0;" vertex="1" parent="LgVzaCfuc4gzp10Vu214-1">
          <mxGeometry x="820" y="25" width="220" height="35" as="geometry" />
        </mxCell>
        <mxCell id="LgVzaCfuc4gzp10Vu214-6" value="" style="html=1;strokeWidth=1;shadow=0;dashed=0;shape=mxgraph.ios7ui.marginRect;rx=3;ry=3;rectMargin=5;fillColor=#E4E4E4;strokeColor=none;fontSize=15;fontColor=#B0B0B0;" vertex="1" parent="LgVzaCfuc4gzp10Vu214-5">
          <mxGeometry width="220.00000000000003" height="35" as="geometry" />
        </mxCell>
        <mxCell id="LgVzaCfuc4gzp10Vu214-11" value="&lt;font color=&quot;#a8a8a8&quot;&gt;SEARCH&lt;/font&gt;" style="text;html=1;align=center;verticalAlign=middle;resizable=0;points=[];autosize=1;strokeColor=none;fillColor=none;fontSize=18;fontColor=#000000;" vertex="1" parent="LgVzaCfuc4gzp10Vu214-5">
          <mxGeometry x="10" y="2.5" width="90" height="30" as="geometry" />
        </mxCell>
        <mxCell id="LgVzaCfuc4gzp10Vu214-12" value="" style="html=1;verticalLabelPosition=bottom;align=center;labelBackgroundColor=#ffffff;verticalAlign=top;strokeWidth=2;strokeColor=#666666;shadow=0;dashed=0;shape=mxgraph.ios7.icons.looking_glass;fontSize=18;fontColor=#A8A8A8;fillColor=#FFFFFF;gradientColor=none;" vertex="1" parent="LgVzaCfuc4gzp10Vu214-5">
          <mxGeometry x="190" y="9.5" width="20" height="16" as="geometry" />
        </mxCell>
        <mxCell id="LgVzaCfuc4gzp10Vu214-21" value="&lt;font color=&quot;#a8a8a8&quot;&gt;SEARCH&lt;/font&gt;" style="text;html=1;align=center;verticalAlign=middle;resizable=0;points=[];autosize=1;strokeColor=none;fillColor=none;fontSize=18;fontColor=#000000;" vertex="1" parent="LgVzaCfuc4gzp10Vu214-5">
          <mxGeometry x="10" y="2.5" width="90" height="30" as="geometry" />
        </mxCell>
        <mxCell id="LgVzaCfuc4gzp10Vu214-22" value="&lt;font color=&quot;#a8a8a8&quot;&gt;SEARCH&lt;/font&gt;" style="text;html=1;align=center;verticalAlign=middle;resizable=0;points=[];autosize=1;strokeColor=none;fillColor=none;fontSize=18;fontColor=#000000;" vertex="1" parent="LgVzaCfuc4gzp10Vu214-5">
          <mxGeometry x="10" y="2.5" width="90" height="30" as="geometry" />
        </mxCell>
        <mxCell id="LgVzaCfuc4gzp10Vu214-8" value="" style="shape=image;html=1;verticalAlign=top;verticalLabelPosition=bottom;labelBackgroundColor=#ffffff;imageAspect=0;aspect=fixed;image=https://cdn1.iconfinder.com/data/icons/user-pictures/100/female1-128.png;fontSize=15;fontColor=#B0B0B0;fillColor=#FCDEF8;gradientColor=none;" vertex="1" parent="LgVzaCfuc4gzp10Vu214-1">
          <mxGeometry x="70" y="25" width="125" height="125" as="geometry" />
        </mxCell>
        <mxCell id="LgVzaCfuc4gzp10Vu214-9" value="&lt;font color=&quot;#000000&quot; style=&quot;font-size: 18px&quot;&gt;Reema&lt;/font&gt;" style="rounded=1;whiteSpace=wrap;html=1;fontSize=15;fontColor=#B0B0B0;fillColor=#FCDEF8;gradientColor=none;" vertex="1" parent="LgVzaCfuc4gzp10Vu214-1">
          <mxGeometry x="40" y="170" width="190" height="40" as="geometry" />
        </mxCell>
        <mxCell id="LgVzaCfuc4gzp10Vu214-13" value="" style="shadow=0;dashed=0;html=1;strokeColor=none;fillColor=#FCDEF8;labelPosition=center;verticalLabelPosition=bottom;verticalAlign=top;align=center;outlineConnect=0;shape=mxgraph.veeam.building;fontSize=18;fontColor=#A8A8A8;" vertex="1" parent="LgVzaCfuc4gzp10Vu214-1">
          <mxGeometry x="40" y="260" width="40" height="40" as="geometry" />
        </mxCell>
        <mxCell id="LgVzaCfuc4gzp10Vu214-14" value="&lt;font color=&quot;#ffffff&quot;&gt;Company&lt;/font&gt;" style="text;html=1;strokeColor=none;fillColor=none;align=center;verticalAlign=middle;whiteSpace=wrap;rounded=0;fontSize=18;fontColor=#A8A8A8;" vertex="1" parent="LgVzaCfuc4gzp10Vu214-1">
          <mxGeometry x="102.5" y="270" width="85" height="30" as="geometry" />
        </mxCell>
        <mxCell id="LgVzaCfuc4gzp10Vu214-15" value="" style="sketch=0;pointerEvents=1;shadow=0;dashed=0;html=1;strokeColor=none;fillColor=#FCDEF8;labelPosition=center;verticalLabelPosition=bottom;verticalAlign=top;outlineConnect=0;align=center;shape=mxgraph.office.concepts.contacts;fontSize=18;fontColor=#FFFFFF;" vertex="1" parent="LgVzaCfuc4gzp10Vu214-1">
          <mxGeometry x="40" y="350" width="40" height="40" as="geometry" />
        </mxCell>
        <mxCell id="LgVzaCfuc4gzp10Vu214-16" value="Contacts" style="text;html=1;strokeColor=none;fillColor=none;align=center;verticalAlign=middle;whiteSpace=wrap;rounded=0;fontSize=18;fontColor=#FFFFFF;" vertex="1" parent="LgVzaCfuc4gzp10Vu214-1">
          <mxGeometry x="105" y="354.5" width="85" height="30" as="geometry" />
        </mxCell>
        <mxCell id="LgVzaCfuc4gzp10Vu214-17" value="Logout" style="text;html=1;strokeColor=none;fillColor=none;align=center;verticalAlign=middle;whiteSpace=wrap;rounded=0;fontSize=18;fontColor=#FFFFFF;" vertex="1" parent="LgVzaCfuc4gzp10Vu214-1">
          <mxGeometry x="115" y="670" width="75" height="30" as="geometry" />
        </mxCell>
        <mxCell id="LgVzaCfuc4gzp10Vu214-19" value="" style="shape=image;html=1;verticalAlign=top;verticalLabelPosition=bottom;labelBackgroundColor=#ffffff;imageAspect=0;aspect=fixed;image=https://cdn1.iconfinder.com/data/icons/heroicons-ui/24/logout-128.png;fontSize=18;fontColor=#FFFFFF;strokeColor=#1A1A1A;fillColor=#FCDEF8;gradientColor=none;imageBackground=#FCDEF8;" vertex="1" parent="LgVzaCfuc4gzp10Vu214-1">
          <mxGeometry x="40" y="670" width="40" height="40" as="geometry" />
        </mxCell>
        <mxCell id="LgVzaCfuc4gzp10Vu214-20" value="&lt;font style=&quot;font-size: 17px&quot;&gt;+ &lt;/font&gt;&lt;font style=&quot;font-size: 17px&quot;&gt;Add Company&lt;/font&gt;" style="html=1;shadow=0;dashed=0;shape=mxgraph.bootstrap.rrect;rSize=5;strokeColor=none;strokeWidth=1;fillColor=#850085;fontColor=#FFFFFF;whiteSpace=wrap;align=center;verticalAlign=middle;spacingLeft=0;fontStyle=0;fontSize=16;spacing=5;" vertex="1" parent="LgVzaCfuc4gzp10Vu214-1">
          <mxGeometry x="900" y="110" width="160" height="40" as="geometry" />
        </mxCell>
        <mxCell id="LgVzaCfuc4gzp10Vu214-23" value="" style="html=1;verticalLabelPosition=bottom;align=center;labelBackgroundColor=#ffffff;verticalAlign=top;strokeWidth=2;strokeColor=#FCDEF8;shadow=0;dashed=0;shape=mxgraph.ios7.icons.settings;fontSize=17;fontColor=#FFFFFF;fillColor=#850085;gradientColor=none;" vertex="1" parent="LgVzaCfuc4gzp10Vu214-1">
          <mxGeometry x="47" y="740" width="30" height="30" as="geometry" />
        </mxCell>
        <mxCell id="LgVzaCfuc4gzp10Vu214-24" value="&lt;font style=&quot;font-size: 18px&quot;&gt;Settings&lt;/font&gt;" style="text;html=1;strokeColor=none;fillColor=none;align=center;verticalAlign=middle;whiteSpace=wrap;rounded=0;fontSize=17;fontColor=#FFFFFF;" vertex="1" parent="LgVzaCfuc4gzp10Vu214-1">
          <mxGeometry x="115" y="730" width="92.5" height="40" as="geometry" />
        </mxCell>
        <mxCell id="LgVzaCfuc4gzp10Vu214-27" value="" style="shape=table;html=1;whiteSpace=wrap;startSize=0;container=1;collapsible=0;childLayout=tableLayout;fontSize=18;fontColor=#FFFFFF;strokeColor=#850085;fillColor=#FCDEF8;gradientColor=none;" vertex="1" parent="LgVzaCfuc4gzp10Vu214-1">
          <mxGeometry x="300" y="220" width="380.0000000000007" height="230" as="geometry" />
        </mxCell>
        <mxCell id="LgVzaCfuc4gzp10Vu214-28" value="" style="shape=tableRow;horizontal=0;startSize=0;swimlaneHead=0;swimlaneBody=0;top=0;left=0;bottom=0;right=0;collapsible=0;dropTarget=0;fillColor=none;points=[[0,0.5],[1,0.5]];portConstraint=eastwest;fontSize=18;fontColor=#FFFFFF;strokeColor=#850085;" vertex="1" parent="LgVzaCfuc4gzp10Vu214-27">
          <mxGeometry width="380.0000000000007" height="76" as="geometry" />
        </mxCell>
        <mxCell id="LgVzaCfuc4gzp10Vu214-29" value="" style="shape=partialRectangle;html=1;whiteSpace=wrap;connectable=0;fillColor=none;top=0;left=0;bottom=0;right=0;overflow=hidden;fontSize=18;fontColor=#FFFFFF;strokeColor=#850085;" vertex="1" parent="LgVzaCfuc4gzp10Vu214-28">
          <mxGeometry width="150" height="76" as="geometry">
            <mxRectangle width="150" height="76" as="alternateBounds" />
          </mxGeometry>
        </mxCell>
        <mxCell id="LgVzaCfuc4gzp10Vu214-30" value="" style="shape=partialRectangle;html=1;whiteSpace=wrap;connectable=0;fillColor=none;top=0;left=0;bottom=0;right=0;overflow=hidden;fontSize=18;fontColor=#FFFFFF;strokeColor=#850085;" vertex="1" parent="LgVzaCfuc4gzp10Vu214-28">
          <mxGeometry x="150" width="120" height="76" as="geometry">
            <mxRectangle width="120" height="76" as="alternateBounds" />
          </mxGeometry>
        </mxCell>
        <mxCell id="LgVzaCfuc4gzp10Vu214-31" value="" style="shape=partialRectangle;html=1;whiteSpace=wrap;connectable=0;fillColor=none;top=0;left=0;bottom=0;right=0;overflow=hidden;fontSize=18;fontColor=#FFFFFF;strokeColor=#850085;" vertex="1" parent="LgVzaCfuc4gzp10Vu214-28">
          <mxGeometry x="270" width="110" height="76" as="geometry">
            <mxRectangle width="110" height="76" as="alternateBounds" />
          </mxGeometry>
        </mxCell>
        <mxCell id="LgVzaCfuc4gzp10Vu214-32" value="" style="shape=tableRow;horizontal=0;startSize=0;swimlaneHead=0;swimlaneBody=0;top=0;left=0;bottom=0;right=0;collapsible=0;dropTarget=0;fillColor=none;points=[[0,0.5],[1,0.5]];portConstraint=eastwest;fontSize=18;fontColor=#FFFFFF;strokeColor=#850085;" vertex="1" parent="LgVzaCfuc4gzp10Vu214-27">
          <mxGeometry y="76" width="380.0000000000007" height="78" as="geometry" />
        </mxCell>
        <mxCell id="LgVzaCfuc4gzp10Vu214-33" value="" style="shape=partialRectangle;html=1;whiteSpace=wrap;connectable=0;fillColor=none;top=0;left=0;bottom=0;right=0;overflow=hidden;fontSize=18;fontColor=#FFFFFF;strokeColor=#850085;" vertex="1" parent="LgVzaCfuc4gzp10Vu214-32">
          <mxGeometry width="150" height="78" as="geometry">
            <mxRectangle width="150" height="78" as="alternateBounds" />
          </mxGeometry>
        </mxCell>
        <mxCell id="LgVzaCfuc4gzp10Vu214-34" value="" style="shape=partialRectangle;html=1;whiteSpace=wrap;connectable=0;fillColor=none;top=0;left=0;bottom=0;right=0;overflow=hidden;fontSize=18;fontColor=#FFFFFF;strokeColor=#850085;" vertex="1" parent="LgVzaCfuc4gzp10Vu214-32">
          <mxGeometry x="150" width="120" height="78" as="geometry">
            <mxRectangle width="120" height="78" as="alternateBounds" />
          </mxGeometry>
        </mxCell>
        <mxCell id="LgVzaCfuc4gzp10Vu214-35" value="" style="shape=partialRectangle;html=1;whiteSpace=wrap;connectable=0;fillColor=none;top=0;left=0;bottom=0;right=0;overflow=hidden;fontSize=18;fontColor=#FFFFFF;strokeColor=#850085;" vertex="1" parent="LgVzaCfuc4gzp10Vu214-32">
          <mxGeometry x="270" width="110" height="78" as="geometry">
            <mxRectangle width="110" height="78" as="alternateBounds" />
          </mxGeometry>
        </mxCell>
        <mxCell id="LgVzaCfuc4gzp10Vu214-36" value="" style="shape=tableRow;horizontal=0;startSize=0;swimlaneHead=0;swimlaneBody=0;top=0;left=0;bottom=0;right=0;collapsible=0;dropTarget=0;fillColor=none;points=[[0,0.5],[1,0.5]];portConstraint=eastwest;fontSize=18;fontColor=#FFFFFF;strokeColor=#850085;" vertex="1" parent="LgVzaCfuc4gzp10Vu214-27">
          <mxGeometry y="154" width="380.0000000000007" height="76" as="geometry" />
        </mxCell>
        <mxCell id="LgVzaCfuc4gzp10Vu214-37" value="" style="shape=partialRectangle;html=1;whiteSpace=wrap;connectable=0;fillColor=none;top=0;left=0;bottom=0;right=0;overflow=hidden;fontSize=18;fontColor=#FFFFFF;strokeColor=#850085;" vertex="1" parent="LgVzaCfuc4gzp10Vu214-36">
          <mxGeometry width="150" height="76" as="geometry">
            <mxRectangle width="150" height="76" as="alternateBounds" />
          </mxGeometry>
        </mxCell>
        <mxCell id="LgVzaCfuc4gzp10Vu214-38" value="" style="shape=partialRectangle;html=1;whiteSpace=wrap;connectable=0;fillColor=none;top=0;left=0;bottom=0;right=0;overflow=hidden;fontSize=18;fontColor=#FFFFFF;strokeColor=#850085;" vertex="1" parent="LgVzaCfuc4gzp10Vu214-36">
          <mxGeometry x="150" width="120" height="76" as="geometry">
            <mxRectangle width="120" height="76" as="alternateBounds" />
          </mxGeometry>
        </mxCell>
        <mxCell id="LgVzaCfuc4gzp10Vu214-39" value="" style="shape=partialRectangle;html=1;whiteSpace=wrap;connectable=0;fillColor=none;top=0;left=0;bottom=0;right=0;overflow=hidden;pointerEvents=1;fontSize=18;fontColor=#FFFFFF;strokeColor=#850085;" vertex="1" parent="LgVzaCfuc4gzp10Vu214-36">
          <mxGeometry x="270" width="110" height="76" as="geometry">
            <mxRectangle width="110" height="76" as="alternateBounds" />
          </mxGeometry>
        </mxCell>
        <mxCell id="LgVzaCfuc4gzp10Vu214-40" value="Company Name" style="text;html=1;strokeColor=none;fillColor=none;align=center;verticalAlign=middle;whiteSpace=wrap;rounded=0;fontSize=18;fontColor=#1A1A1A;" vertex="1" parent="LgVzaCfuc4gzp10Vu214-1">
          <mxGeometry x="340" y="250" width="60" height="30" as="geometry" />
        </mxCell>
        <mxCell id="LgVzaCfuc4gzp10Vu214-41" value="CEO" style="text;html=1;strokeColor=none;fillColor=none;align=center;verticalAlign=middle;whiteSpace=wrap;rounded=0;fontSize=18;fontColor=#1A1A1A;" vertex="1" parent="LgVzaCfuc4gzp10Vu214-1">
          <mxGeometry x="490" y="240" width="60" height="30" as="geometry" />
        </mxCell>
        <mxCell id="OHYdnPyP7L9fukG7NHmn-0" value="Founded" style="text;html=1;strokeColor=none;fillColor=none;align=center;verticalAlign=middle;whiteSpace=wrap;rounded=0;fontSize=18;fontColor=#1A1A1A;" vertex="1" parent="LgVzaCfuc4gzp10Vu214-1">
          <mxGeometry x="600" y="250" width="70" height="30" as="geometry" />
        </mxCell>
        <mxCell id="OHYdnPyP7L9fukG7NHmn-1" value="" style="shape=table;html=1;whiteSpace=wrap;startSize=0;container=1;collapsible=0;childLayout=tableLayout;fontSize=18;fontColor=#1A1A1A;strokeColor=#850085;fillColor=#FCDEF8;gradientColor=none;" vertex="1" parent="LgVzaCfuc4gzp10Vu214-1">
          <mxGeometry x="680" y="220" width="370" height="230" as="geometry" />
        </mxCell>
        <mxCell id="OHYdnPyP7L9fukG7NHmn-2" value="" style="shape=tableRow;horizontal=0;startSize=0;swimlaneHead=0;swimlaneBody=0;top=0;left=0;bottom=0;right=0;collapsible=0;dropTarget=0;fillColor=none;points=[[0,0.5],[1,0.5]];portConstraint=eastwest;fontSize=18;fontColor=#1A1A1A;strokeColor=#850085;" vertex="1" parent="OHYdnPyP7L9fukG7NHmn-1">
          <mxGeometry width="370" height="77" as="geometry" />
        </mxCell>
        <mxCell id="OHYdnPyP7L9fukG7NHmn-3" value="" style="shape=partialRectangle;html=1;whiteSpace=wrap;connectable=0;fillColor=none;top=0;left=0;bottom=0;right=0;overflow=hidden;fontSize=18;fontColor=#1A1A1A;strokeColor=#850085;" vertex="1" parent="OHYdnPyP7L9fukG7NHmn-2">
          <mxGeometry width="140" height="77" as="geometry">
            <mxRectangle width="140" height="77" as="alternateBounds" />
          </mxGeometry>
        </mxCell>
        <mxCell id="OHYdnPyP7L9fukG7NHmn-4" value="" style="shape=partialRectangle;html=1;whiteSpace=wrap;connectable=0;fillColor=none;top=0;left=0;bottom=0;right=0;overflow=hidden;fontSize=18;fontColor=#1A1A1A;strokeColor=#850085;" vertex="1" parent="OHYdnPyP7L9fukG7NHmn-2">
          <mxGeometry x="140" width="110" height="77" as="geometry">
            <mxRectangle width="110" height="77" as="alternateBounds" />
          </mxGeometry>
        </mxCell>
        <mxCell id="OHYdnPyP7L9fukG7NHmn-5" value="" style="shape=partialRectangle;html=1;whiteSpace=wrap;connectable=0;fillColor=none;top=0;left=0;bottom=0;right=0;overflow=hidden;fontSize=18;fontColor=#1A1A1A;strokeColor=#850085;" vertex="1" parent="OHYdnPyP7L9fukG7NHmn-2">
          <mxGeometry x="250" width="120" height="77" as="geometry">
            <mxRectangle width="120" height="77" as="alternateBounds" />
          </mxGeometry>
        </mxCell>
        <mxCell id="OHYdnPyP7L9fukG7NHmn-6" value="" style="shape=tableRow;horizontal=0;startSize=0;swimlaneHead=0;swimlaneBody=0;top=0;left=0;bottom=0;right=0;collapsible=0;dropTarget=0;fillColor=none;points=[[0,0.5],[1,0.5]];portConstraint=eastwest;fontSize=18;fontColor=#1A1A1A;strokeColor=#850085;" vertex="1" parent="OHYdnPyP7L9fukG7NHmn-1">
          <mxGeometry y="77" width="370" height="73" as="geometry" />
        </mxCell>
        <mxCell id="OHYdnPyP7L9fukG7NHmn-7" value="" style="shape=partialRectangle;html=1;whiteSpace=wrap;connectable=0;fillColor=none;top=0;left=0;bottom=0;right=0;overflow=hidden;fontSize=18;fontColor=#1A1A1A;strokeColor=#850085;" vertex="1" parent="OHYdnPyP7L9fukG7NHmn-6">
          <mxGeometry width="140" height="73" as="geometry">
            <mxRectangle width="140" height="73" as="alternateBounds" />
          </mxGeometry>
        </mxCell>
        <mxCell id="OHYdnPyP7L9fukG7NHmn-8" value="" style="shape=partialRectangle;html=1;whiteSpace=wrap;connectable=0;fillColor=none;top=0;left=0;bottom=0;right=0;overflow=hidden;fontSize=18;fontColor=#1A1A1A;strokeColor=#850085;" vertex="1" parent="OHYdnPyP7L9fukG7NHmn-6">
          <mxGeometry x="140" width="110" height="73" as="geometry">
            <mxRectangle width="110" height="73" as="alternateBounds" />
          </mxGeometry>
        </mxCell>
        <mxCell id="OHYdnPyP7L9fukG7NHmn-9" value="" style="shape=partialRectangle;html=1;whiteSpace=wrap;connectable=0;fillColor=none;top=0;left=0;bottom=0;right=0;overflow=hidden;fontSize=18;fontColor=#1A1A1A;strokeColor=#850085;" vertex="1" parent="OHYdnPyP7L9fukG7NHmn-6">
          <mxGeometry x="250" width="120" height="73" as="geometry">
            <mxRectangle width="120" height="73" as="alternateBounds" />
          </mxGeometry>
        </mxCell>
        <mxCell id="OHYdnPyP7L9fukG7NHmn-10" value="" style="shape=tableRow;horizontal=0;startSize=0;swimlaneHead=0;swimlaneBody=0;top=0;left=0;bottom=0;right=0;collapsible=0;dropTarget=0;fillColor=none;points=[[0,0.5],[1,0.5]];portConstraint=eastwest;fontSize=18;fontColor=#1A1A1A;strokeColor=#850085;" vertex="1" parent="OHYdnPyP7L9fukG7NHmn-1">
          <mxGeometry y="150" width="370" height="80" as="geometry" />
        </mxCell>
        <mxCell id="OHYdnPyP7L9fukG7NHmn-11" value="" style="shape=partialRectangle;html=1;whiteSpace=wrap;connectable=0;fillColor=none;top=0;left=0;bottom=0;right=0;overflow=hidden;fontSize=18;fontColor=#1A1A1A;strokeColor=#850085;" vertex="1" parent="OHYdnPyP7L9fukG7NHmn-10">
          <mxGeometry width="140" height="80" as="geometry">
            <mxRectangle width="140" height="80" as="alternateBounds" />
          </mxGeometry>
        </mxCell>
        <mxCell id="OHYdnPyP7L9fukG7NHmn-12" value="" style="shape=partialRectangle;html=1;whiteSpace=wrap;connectable=0;fillColor=none;top=0;left=0;bottom=0;right=0;overflow=hidden;fontSize=18;fontColor=#1A1A1A;strokeColor=#850085;" vertex="1" parent="OHYdnPyP7L9fukG7NHmn-10">
          <mxGeometry x="140" width="110" height="80" as="geometry">
            <mxRectangle width="110" height="80" as="alternateBounds" />
          </mxGeometry>
        </mxCell>
        <mxCell id="OHYdnPyP7L9fukG7NHmn-13" value="" style="shape=partialRectangle;html=1;whiteSpace=wrap;connectable=0;fillColor=none;top=0;left=0;bottom=0;right=0;overflow=hidden;pointerEvents=1;fontSize=18;fontColor=#1A1A1A;strokeColor=#850085;" vertex="1" parent="OHYdnPyP7L9fukG7NHmn-10">
          <mxGeometry x="250" width="120" height="80" as="geometry">
            <mxRectangle width="120" height="80" as="alternateBounds" />
          </mxGeometry>
        </mxCell>
        <mxCell id="OHYdnPyP7L9fukG7NHmn-14" value="No. of Employees" style="text;html=1;strokeColor=none;fillColor=none;align=center;verticalAlign=middle;whiteSpace=wrap;rounded=0;fontSize=18;fontColor=#1A1A1A;" vertex="1" parent="LgVzaCfuc4gzp10Vu214-1">
          <mxGeometry x="736" y="240" width="60" height="30" as="geometry" />
        </mxCell>
        <mxCell id="OHYdnPyP7L9fukG7NHmn-15" value="Contact" style="text;html=1;strokeColor=none;fillColor=none;align=center;verticalAlign=middle;whiteSpace=wrap;rounded=0;fontSize=18;fontColor=#1A1A1A;" vertex="1" parent="LgVzaCfuc4gzp10Vu214-1">
          <mxGeometry x="835" y="250" width="60" height="30" as="geometry" />
        </mxCell>
        <mxCell id="OHYdnPyP7L9fukG7NHmn-17" value="Actions" style="text;html=1;strokeColor=none;fillColor=none;align=center;verticalAlign=middle;whiteSpace=wrap;rounded=0;fontSize=18;fontColor=#1A1A1A;" vertex="1" parent="LgVzaCfuc4gzp10Vu214-1">
          <mxGeometry x="940" y="250" width="60" height="30" as="geometry" />
        </mxCell>
      </root>
    </mxGraphModel>
  </diagram>
</mxfile>
